<?xml version="1.0" standalone="no"?>
<!DOCTYPE svg PUBLIC "-//W3C//DTD SVG 20010904//EN"
 "http://www.w3.org/TR/2001/REC-SVG-20010904/DTD/svg10.dtd">
<svg version="1.0" xmlns="http://www.w3.org/2000/svg"
 width="800.000000pt" height="800.000000pt" viewBox="0 0 800.000000 800.000000"
 preserveAspectRatio="xMidYMid meet">
<metadata>
Created by potrace 1.11, written by Peter Selinger 2001-2013
</metadata>
<g transform="translate(0.000000,800.000000) scale(0.100000,-0.100000)"
fill="#000000" stroke="none">
<path d="M3696 6182 c-2 -1 -27 -5 -57 -8 -109 -10 -126 -13 -224 -33 -90 -19
-299 -79 -350 -101 -96 -42 -268 -128 -312 -156 -29 -19 -56 -34 -59 -34 -6 0
-171 -117 -190 -135 -6 -5 -37 -32 -69 -60 -219 -188 -400 -424 -527 -685 -49
-100 -66 -141 -64 -151 0 -3 -5 -13 -13 -22 -7 -10 -10 -17 -6 -17 4 0 3 -6
-3 -13 -11 -13 -70 -202 -79 -252 -8 -43 -11 -60 -13 -60 -2 0 -9 -36 -15 -85
-4 -25 -8 -56 -11 -70 -26 -149 -20 -522 12 -650 3 -14 8 -40 10 -58 2 -18 5
-37 7 -43 1 -5 -47 -35 -108 -67 -60 -31 -115 -62 -122 -68 -6 -6 -25 -17 -42
-24 -38 -15 -39 -26 -6 -34 17 -4 38 1 68 18 23 14 83 45 132 69 78 39 91 42
97 28 3 -9 23 -69 44 -134 20 -65 41 -120 46 -123 4 -3 8 -12 8 -21 0 -21 112
-243 167 -331 51 -81 190 -258 263 -336 l84 -88 -39 -36 c-66 -59 -215 -195
-256 -233 -31 -29 -39 -44 -39 -71 l0 -34 87 84 c47 46 109 102 136 125 27 23
65 57 85 75 59 53 69 56 95 30 44 -44 212 -167 297 -217 47 -28 90 -54 95 -58
11 -9 170 -83 230 -108 128 -53 371 -120 470 -129 22 -2 51 -7 65 -11 28 -7
166 -15 250 -15 30 0 73 0 95 -1 55 0 56 0 90 4 17 3 59 7 95 11 36 3 108 15
160 27 52 11 105 22 117 25 12 2 33 8 45 13 13 5 25 8 28 8 35 -3 334 123 449
189 49 27 245 155 251 163 3 4 19 17 35 30 116 88 231 203 363 361 54 64 159
224 201 304 23 44 45 84 50 90 14 18 99 236 125 321 23 76 53 201 61 255 13
85 16 112 24 173 8 73 7 357 -3 422 -23 162 -29 194 -51 283 -21 88 -41 150
-70 227 -49 128 -49 122 -7 158 103 88 359 355 433 452 13 17 26 32 29 35 4 3
35 48 71 100 35 52 67 97 70 100 11 9 107 195 137 265 47 110 49 127 11 75
-18 -25 -37 -51 -43 -57 -6 -7 -20 -24 -31 -38 -78 -101 -357 -347 -505 -445
-12 -8 -32 -22 -44 -31 -58 -44 -156 -109 -163 -109 -4 0 -21 -11 -37 -25 -16
-14 -35 -25 -43 -25 -7 0 -13 -3 -13 -7 0 -5 -14 -16 -32 -26 -25 -14 -33 -15
-40 -5 -5 7 -18 29 -30 48 -12 19 -25 37 -28 40 -3 3 -23 30 -45 60 -113 158
-336 370 -525 499 -82 57 -290 174 -310 176 -3 1 -21 8 -40 17 -65 31 -229 92
-280 103 -8 2 -15 4 -15 5 0 2 -5 3 -102 24 -127 28 -145 30 -263 42 -65 6
-359 12 -364 6z"/>
</g>
</svg>
